<mxfile host="Electron" agent="Mozilla/5.0 (Windows NT 10.0; Win64; x64) AppleWebKit/537.36 (KHTML, like Gecko) draw.io/28.1.2 Chrome/138.0.7204.243 Electron/37.4.0 Safari/537.36" version="28.1.2">
  <diagram id="C5RBs43oDa-KdzZeNtuy" name="Page-1">
    <mxGraphModel dx="710" dy="609" grid="1" gridSize="10" guides="1" tooltips="1" connect="1" arrows="1" fold="1" page="1" pageScale="1" pageWidth="827" pageHeight="1169" math="0" shadow="0">
      <root>
        <mxCell id="WIyWlLk6GJQsqaUBKTNV-0" />
        <mxCell id="WIyWlLk6GJQsqaUBKTNV-1" parent="WIyWlLk6GJQsqaUBKTNV-0" />
        <mxCell id="WIyWlLk6GJQsqaUBKTNV-2" value="" style="rounded=0;html=1;jettySize=auto;orthogonalLoop=1;fontSize=11;endArrow=block;endFill=0;endSize=8;strokeWidth=1;shadow=0;labelBackgroundColor=none;edgeStyle=orthogonalEdgeStyle;" parent="WIyWlLk6GJQsqaUBKTNV-1" source="WIyWlLk6GJQsqaUBKTNV-3" edge="1">
          <mxGeometry relative="1" as="geometry">
            <mxPoint x="220" y="170" as="targetPoint" />
          </mxGeometry>
        </mxCell>
        <mxCell id="WIyWlLk6GJQsqaUBKTNV-3" value="开始" style="rounded=1;whiteSpace=wrap;html=1;fontSize=12;glass=0;strokeWidth=1;shadow=0;" parent="WIyWlLk6GJQsqaUBKTNV-1" vertex="1">
          <mxGeometry x="160" y="80" width="120" height="40" as="geometry" />
        </mxCell>
        <mxCell id="YgvgXnCMDHzdA_Xekc3K-2" style="edgeStyle=orthogonalEdgeStyle;rounded=0;orthogonalLoop=1;jettySize=auto;html=1;exitX=0.5;exitY=1;exitDx=0;exitDy=0;entryX=0.5;entryY=0;entryDx=0;entryDy=0;" parent="WIyWlLk6GJQsqaUBKTNV-1" source="YgvgXnCMDHzdA_Xekc3K-0" target="YgvgXnCMDHzdA_Xekc3K-1" edge="1">
          <mxGeometry relative="1" as="geometry" />
        </mxCell>
        <mxCell id="YgvgXnCMDHzdA_Xekc3K-0" value="检查各模块" style="rounded=0;whiteSpace=wrap;html=1;" parent="WIyWlLk6GJQsqaUBKTNV-1" vertex="1">
          <mxGeometry x="160" y="170" width="120" height="60" as="geometry" />
        </mxCell>
        <mxCell id="YgvgXnCMDHzdA_Xekc3K-3" style="edgeStyle=orthogonalEdgeStyle;rounded=0;orthogonalLoop=1;jettySize=auto;html=1;exitX=0.5;exitY=1;exitDx=0;exitDy=0;entryX=0.5;entryY=0;entryDx=0;entryDy=0;" parent="WIyWlLk6GJQsqaUBKTNV-1" source="YgvgXnCMDHzdA_Xekc3K-1" target="YgvgXnCMDHzdA_Xekc3K-8" edge="1">
          <mxGeometry relative="1" as="geometry">
            <mxPoint x="220" y="390" as="targetPoint" />
          </mxGeometry>
        </mxCell>
        <mxCell id="YgvgXnCMDHzdA_Xekc3K-7" style="edgeStyle=orthogonalEdgeStyle;rounded=0;orthogonalLoop=1;jettySize=auto;html=1;entryX=0.5;entryY=0;entryDx=0;entryDy=0;" parent="WIyWlLk6GJQsqaUBKTNV-1" source="YgvgXnCMDHzdA_Xekc3K-1" target="YgvgXnCMDHzdA_Xekc3K-6" edge="1">
          <mxGeometry relative="1" as="geometry" />
        </mxCell>
        <mxCell id="YgvgXnCMDHzdA_Xekc3K-1" value="初始定位" style="rounded=0;whiteSpace=wrap;html=1;shape=rhombus;perimeter=rhombusPerimeter;" parent="WIyWlLk6GJQsqaUBKTNV-1" vertex="1">
          <mxGeometry x="160" y="280" width="120" height="60" as="geometry" />
        </mxCell>
        <mxCell id="YgvgXnCMDHzdA_Xekc3K-4" value="yes" style="text;html=1;align=center;verticalAlign=middle;resizable=0;points=[];autosize=1;strokeColor=none;fillColor=none;" parent="WIyWlLk6GJQsqaUBKTNV-1" vertex="1">
          <mxGeometry x="220" y="348" width="40" height="30" as="geometry" />
        </mxCell>
        <mxCell id="YgvgXnCMDHzdA_Xekc3K-9" style="edgeStyle=orthogonalEdgeStyle;rounded=0;orthogonalLoop=1;jettySize=auto;html=1;exitX=0.5;exitY=1;exitDx=0;exitDy=0;" parent="WIyWlLk6GJQsqaUBKTNV-1" source="YgvgXnCMDHzdA_Xekc3K-6" edge="1">
          <mxGeometry relative="1" as="geometry">
            <mxPoint x="220" y="460" as="targetPoint" />
          </mxGeometry>
        </mxCell>
        <mxCell id="YgvgXnCMDHzdA_Xekc3K-6" value="移动到一个区域进行定位" style="rounded=0;whiteSpace=wrap;html=1;" parent="WIyWlLk6GJQsqaUBKTNV-1" vertex="1">
          <mxGeometry x="290" y="350" width="90" height="50" as="geometry" />
        </mxCell>
        <mxCell id="YgvgXnCMDHzdA_Xekc3K-13" style="edgeStyle=orthogonalEdgeStyle;rounded=0;orthogonalLoop=1;jettySize=auto;html=1;exitX=0.5;exitY=1;exitDx=0;exitDy=0;" parent="WIyWlLk6GJQsqaUBKTNV-1" source="YgvgXnCMDHzdA_Xekc3K-8" edge="1">
          <mxGeometry relative="1" as="geometry">
            <mxPoint x="220" y="600" as="targetPoint" />
          </mxGeometry>
        </mxCell>
        <mxCell id="YgvgXnCMDHzdA_Xekc3K-19" style="edgeStyle=orthogonalEdgeStyle;rounded=0;orthogonalLoop=1;jettySize=auto;html=1;entryX=0;entryY=0.5;entryDx=0;entryDy=0;" parent="WIyWlLk6GJQsqaUBKTNV-1" source="YgvgXnCMDHzdA_Xekc3K-8" target="YgvgXnCMDHzdA_Xekc3K-18" edge="1">
          <mxGeometry relative="1" as="geometry" />
        </mxCell>
        <mxCell id="YgvgXnCMDHzdA_Xekc3K-8" value="是否有常规飞镖" style="rounded=0;whiteSpace=wrap;html=1;shape=rhombus;perimeter=rhombusPerimeter;" parent="WIyWlLk6GJQsqaUBKTNV-1" vertex="1">
          <mxGeometry x="160" y="460" width="120" height="60" as="geometry" />
        </mxCell>
        <mxCell id="YgvgXnCMDHzdA_Xekc3K-10" value="no" style="text;html=1;align=center;verticalAlign=middle;resizable=0;points=[];autosize=1;strokeColor=none;fillColor=none;" parent="WIyWlLk6GJQsqaUBKTNV-1" vertex="1">
          <mxGeometry x="310" y="288" width="40" height="30" as="geometry" />
        </mxCell>
        <mxCell id="YgvgXnCMDHzdA_Xekc3K-14" value="yes" style="text;html=1;align=center;verticalAlign=middle;resizable=0;points=[];autosize=1;strokeColor=none;fillColor=none;" parent="WIyWlLk6GJQsqaUBKTNV-1" vertex="1">
          <mxGeometry x="220" y="538" width="40" height="30" as="geometry" />
        </mxCell>
        <mxCell id="YgvgXnCMDHzdA_Xekc3K-17" style="edgeStyle=orthogonalEdgeStyle;rounded=0;orthogonalLoop=1;jettySize=auto;html=1;exitX=0.5;exitY=1;exitDx=0;exitDy=0;entryX=0.5;entryY=0;entryDx=0;entryDy=0;" parent="WIyWlLk6GJQsqaUBKTNV-1" source="YgvgXnCMDHzdA_Xekc3K-15" target="YgvgXnCMDHzdA_Xekc3K-16" edge="1">
          <mxGeometry relative="1" as="geometry" />
        </mxCell>
        <mxCell id="YgvgXnCMDHzdA_Xekc3K-15" value="遍历常规飞镖孔寻找飞镖并抓取" style="rounded=0;whiteSpace=wrap;html=1;" parent="WIyWlLk6GJQsqaUBKTNV-1" vertex="1">
          <mxGeometry x="160" y="600" width="120" height="60" as="geometry" />
        </mxCell>
        <mxCell id="R2Qhr2Pd04TDwG_D-ipi-7" style="edgeStyle=orthogonalEdgeStyle;rounded=0;orthogonalLoop=1;jettySize=auto;html=1;entryX=0.5;entryY=0;entryDx=0;entryDy=0;" edge="1" parent="WIyWlLk6GJQsqaUBKTNV-1" source="YgvgXnCMDHzdA_Xekc3K-16" target="R2Qhr2Pd04TDwG_D-ipi-0">
          <mxGeometry relative="1" as="geometry" />
        </mxCell>
        <mxCell id="YgvgXnCMDHzdA_Xekc3K-16" value="到远程打击区进行打击" style="rounded=0;whiteSpace=wrap;html=1;" parent="WIyWlLk6GJQsqaUBKTNV-1" vertex="1">
          <mxGeometry x="320" y="740" width="120" height="60" as="geometry" />
        </mxCell>
        <mxCell id="YgvgXnCMDHzdA_Xekc3K-21" style="edgeStyle=orthogonalEdgeStyle;rounded=0;orthogonalLoop=1;jettySize=auto;html=1;entryX=0.5;entryY=0;entryDx=0;entryDy=0;" parent="WIyWlLk6GJQsqaUBKTNV-1" source="YgvgXnCMDHzdA_Xekc3K-18" target="YgvgXnCMDHzdA_Xekc3K-20" edge="1">
          <mxGeometry relative="1" as="geometry" />
        </mxCell>
        <mxCell id="YgvgXnCMDHzdA_Xekc3K-27" style="edgeStyle=orthogonalEdgeStyle;rounded=0;orthogonalLoop=1;jettySize=auto;html=1;entryX=0.5;entryY=0;entryDx=0;entryDy=0;" parent="WIyWlLk6GJQsqaUBKTNV-1" source="YgvgXnCMDHzdA_Xekc3K-18" target="YgvgXnCMDHzdA_Xekc3K-26" edge="1">
          <mxGeometry relative="1" as="geometry" />
        </mxCell>
        <mxCell id="YgvgXnCMDHzdA_Xekc3K-18" value="是否有战略飞镖" style="rounded=0;whiteSpace=wrap;html=1;shape=rhombus;perimeter=rhombusPerimeter;" parent="WIyWlLk6GJQsqaUBKTNV-1" vertex="1">
          <mxGeometry x="440" y="460" width="120" height="60" as="geometry" />
        </mxCell>
        <mxCell id="YgvgXnCMDHzdA_Xekc3K-24" style="edgeStyle=orthogonalEdgeStyle;rounded=0;orthogonalLoop=1;jettySize=auto;html=1;exitX=0.5;exitY=1;exitDx=0;exitDy=0;entryX=0.5;entryY=0;entryDx=0;entryDy=0;" parent="WIyWlLk6GJQsqaUBKTNV-1" source="YgvgXnCMDHzdA_Xekc3K-20" target="YgvgXnCMDHzdA_Xekc3K-16" edge="1">
          <mxGeometry relative="1" as="geometry" />
        </mxCell>
        <mxCell id="YgvgXnCMDHzdA_Xekc3K-20" value="遍历战略飞镖孔寻找飞镖并抓取" style="rounded=0;whiteSpace=wrap;html=1;" parent="WIyWlLk6GJQsqaUBKTNV-1" vertex="1">
          <mxGeometry x="440" y="600" width="120" height="60" as="geometry" />
        </mxCell>
        <mxCell id="YgvgXnCMDHzdA_Xekc3K-22" value="yes" style="text;html=1;align=center;verticalAlign=middle;resizable=0;points=[];autosize=1;strokeColor=none;fillColor=none;" parent="WIyWlLk6GJQsqaUBKTNV-1" vertex="1">
          <mxGeometry x="500" y="538" width="40" height="30" as="geometry" />
        </mxCell>
        <mxCell id="YgvgXnCMDHzdA_Xekc3K-23" value="no" style="text;html=1;align=center;verticalAlign=middle;resizable=0;points=[];autosize=1;strokeColor=none;fillColor=none;" parent="WIyWlLk6GJQsqaUBKTNV-1" vertex="1">
          <mxGeometry x="300" y="460" width="40" height="30" as="geometry" />
        </mxCell>
        <mxCell id="YgvgXnCMDHzdA_Xekc3K-26" value="结束" style="rounded=1;whiteSpace=wrap;html=1;" parent="WIyWlLk6GJQsqaUBKTNV-1" vertex="1">
          <mxGeometry x="600" y="860" width="120" height="60" as="geometry" />
        </mxCell>
        <mxCell id="AgA4aUsvwFEP5_T8D6AJ-0" value="no" style="text;html=1;align=center;verticalAlign=middle;resizable=0;points=[];autosize=1;strokeColor=none;fillColor=none;" parent="WIyWlLk6GJQsqaUBKTNV-1" vertex="1">
          <mxGeometry x="580" y="460" width="40" height="30" as="geometry" />
        </mxCell>
        <mxCell id="R2Qhr2Pd04TDwG_D-ipi-3" style="edgeStyle=orthogonalEdgeStyle;rounded=0;orthogonalLoop=1;jettySize=auto;html=1;entryX=0.5;entryY=0;entryDx=0;entryDy=0;" edge="1" parent="WIyWlLk6GJQsqaUBKTNV-1" source="R2Qhr2Pd04TDwG_D-ipi-0" target="R2Qhr2Pd04TDwG_D-ipi-1">
          <mxGeometry relative="1" as="geometry" />
        </mxCell>
        <mxCell id="R2Qhr2Pd04TDwG_D-ipi-5" style="edgeStyle=orthogonalEdgeStyle;rounded=0;orthogonalLoop=1;jettySize=auto;html=1;entryX=0.5;entryY=0;entryDx=0;entryDy=0;" edge="1" parent="WIyWlLk6GJQsqaUBKTNV-1" source="R2Qhr2Pd04TDwG_D-ipi-0" target="R2Qhr2Pd04TDwG_D-ipi-2">
          <mxGeometry relative="1" as="geometry" />
        </mxCell>
        <mxCell id="R2Qhr2Pd04TDwG_D-ipi-0" value="哨所是否还存活" style="rounded=0;whiteSpace=wrap;html=1;shape=rhombus;perimeter=rhombusPerimeter;" vertex="1" parent="WIyWlLk6GJQsqaUBKTNV-1">
          <mxGeometry x="320" y="850" width="120" height="60" as="geometry" />
        </mxCell>
        <mxCell id="R2Qhr2Pd04TDwG_D-ipi-8" style="rounded=0;orthogonalLoop=1;jettySize=auto;html=1;edgeStyle=elbowEdgeStyle;entryX=0;entryY=0.5;entryDx=0;entryDy=0;" edge="1" parent="WIyWlLk6GJQsqaUBKTNV-1" source="R2Qhr2Pd04TDwG_D-ipi-1" target="YgvgXnCMDHzdA_Xekc3K-1">
          <mxGeometry relative="1" as="geometry">
            <mxPoint x="80" y="310" as="targetPoint" />
            <Array as="points">
              <mxPoint x="60" y="320" />
            </Array>
          </mxGeometry>
        </mxCell>
        <mxCell id="R2Qhr2Pd04TDwG_D-ipi-1" value="打击哨所" style="rounded=0;whiteSpace=wrap;html=1;" vertex="1" parent="WIyWlLk6GJQsqaUBKTNV-1">
          <mxGeometry x="190" y="970" width="120" height="60" as="geometry" />
        </mxCell>
        <mxCell id="R2Qhr2Pd04TDwG_D-ipi-11" style="edgeStyle=orthogonalEdgeStyle;rounded=0;orthogonalLoop=1;jettySize=auto;html=1;curved=0;endArrow=none;endFill=0;" edge="1" parent="WIyWlLk6GJQsqaUBKTNV-1" source="R2Qhr2Pd04TDwG_D-ipi-2">
          <mxGeometry relative="1" as="geometry">
            <mxPoint x="60" y="990" as="targetPoint" />
            <Array as="points">
              <mxPoint x="520" y="1100" />
            </Array>
          </mxGeometry>
        </mxCell>
        <mxCell id="R2Qhr2Pd04TDwG_D-ipi-2" value="打击大本营" style="rounded=0;whiteSpace=wrap;html=1;" vertex="1" parent="WIyWlLk6GJQsqaUBKTNV-1">
          <mxGeometry x="460" y="970" width="120" height="60" as="geometry" />
        </mxCell>
        <mxCell id="R2Qhr2Pd04TDwG_D-ipi-4" value="yes" style="text;html=1;align=center;verticalAlign=middle;resizable=0;points=[];autosize=1;strokeColor=none;fillColor=none;" vertex="1" parent="WIyWlLk6GJQsqaUBKTNV-1">
          <mxGeometry x="250" y="890" width="40" height="30" as="geometry" />
        </mxCell>
        <mxCell id="R2Qhr2Pd04TDwG_D-ipi-6" value="no" style="text;html=1;align=center;verticalAlign=middle;resizable=0;points=[];autosize=1;strokeColor=none;fillColor=none;" vertex="1" parent="WIyWlLk6GJQsqaUBKTNV-1">
          <mxGeometry x="480" y="890" width="40" height="30" as="geometry" />
        </mxCell>
      </root>
    </mxGraphModel>
  </diagram>
</mxfile>
